<?xml version="1.0" encoding="utf-8"?>
<!-- Generator: Adobe Illustrator 16.0.0, SVG Export Plug-In . SVG Version: 6.00 Build 0)  -->
<!DOCTYPE svg PUBLIC "-//W3C//DTD SVG 1.1//EN" "http://www.w3.org/Graphics/SVG/1.1/DTD/svg11.dtd">
<svg version="1.1" id="Capa_1" xmlns="http://www.w3.org/2000/svg" xmlns:xlink="http://www.w3.org/1999/xlink" x="0px" y="0px"
	 width="612px" height="792px" viewBox="0 0 612 792" enable-background="new 0 0 612 792" xml:space="preserve">
<g>
	<path fill="#FCFAFA" d="M181.064,407.494c-7.031,7.026-7.031,18.426,0,25.453l111.891,111.891
		c3.511,3.516,8.124,5.273,12.727,5.273c4.603,0,9.215-1.758,12.731-5.273l111.891-111.891c7.003-7.008,7.031-18.366,0.047-25.401
		c-6.984-7.046-18.218-7.111-25.277-0.16l-81.152,79.927V108c0-9.942-8.281-18-18.219-18c-9.942,0-18.22,8.058-18.22,18v380.653
		l-81.064-81.159C199.387,400.463,188.095,400.463,181.064,407.494z"/>
	<path fill="#FCFAFA" d="M387.141,183.731c-9.487-3.038-19.604,2.189-22.631,11.644c-3.038,9.469,2.175,19.603,11.644,22.641
		c95.278,30.558,159.3,118.378,159.3,218.532c0,126.521-102.928,229.453-229.453,229.453c-126.52,0-229.453-102.933-229.453-229.453
		c0-100.153,64.018-187.974,159.3-218.532c9.464-3.038,14.677-13.172,11.644-22.641c-3.042-9.464-13.19-14.677-22.641-11.644
		C114.614,219.089,40.547,320.686,40.547,436.547c0,146.372,119.082,265.454,265.453,265.454
		c146.372,0,265.454-119.082,265.454-265.454C571.453,320.686,497.382,219.089,387.141,183.731z"/>
</g>
</svg>
